<svg width="723" height="603" viewBox="0 0 723 603" fill="none" xmlns="http://www.w3.org/2000/svg">
<g id="Empty states/History">
<g id="Group">
<g id="#1">
<g id="bg">
<path id="Oval 4 Copy" opacity="0.65385" d="M515.239 367.741C563.127 298.593 580.303 287.439 573.303 175.885C566.303 64.3313 420.86 -16.8296 311.582 54.1364C202.304 125.102 -34.9802 410.906 172.076 436.445C379.132 461.984 467.351 436.89 515.239 367.741Z" fill="#E9E9E9"/>
<path id="Oval 4 Copy 2" opacity="0.391071" d="M258.74 559.369C419.172 608.418 579.457 544.826 628.554 384.238C677.65 223.65 721.14 194.061 560.708 145.012C400.276 95.9633 96.6745 46.0283 47.5779 206.616C-1.51871 367.204 98.3078 510.32 258.74 559.369Z" fill="#E9E9E9"/>
<path id="Oval 4 Copy 3" opacity="0.202288" d="M528.691 555.144C689.263 490.269 784.495 256.821 621.853 163.796C459.21 70.7703 421.076 196.4 247.642 154.74C74.2079 113.08 -24.4946 238.19 40.368 398.731C105.231 559.271 368.118 620.02 528.691 555.144Z" fill="#E9E9E9"/>
</g>
<path id="Oval 2 Copy" d="M664.291 138.56C664.291 145.474 658.697 151.07 651.807 151.07C644.917 151.07 639.322 145.474 639.322 138.56C639.322 131.646 644.917 126.049 651.807 126.049C658.697 126.049 664.291 131.646 664.291 138.56Z" stroke="#5395FF" stroke-width="2.08"/>
<path id="Oval 2" d="M182.109 493.366C182.109 500.28 176.514 505.877 169.624 505.877C162.734 505.877 157.14 500.28 157.14 493.366C157.14 486.452 162.734 480.856 169.624 480.856C176.514 480.856 182.109 486.452 182.109 493.366Z" stroke="#5395FF" stroke-width="2.08"/>
<g id="Combined Shape">
<path fill-rule="evenodd" clip-rule="evenodd" d="M80.7306 124.817C79.9371 124.023 78.6506 124.023 77.8571 124.817C77.0635 125.61 77.0635 126.897 77.8571 127.69L89.3278 139.161L77.8571 150.632C77.0635 151.426 77.0635 152.712 77.8571 153.506C78.6506 154.299 79.9371 154.299 80.7306 153.506L92.2014 142.035L103.672 153.506C104.466 154.299 105.752 154.299 106.546 153.506C107.339 152.712 107.339 151.426 106.546 150.632L95.075 139.161L106.546 127.69C107.339 126.897 107.339 125.61 106.546 124.817C105.752 124.023 104.466 124.023 103.672 124.817L92.2014 136.288L80.7306 124.817Z" fill="#5395FF"/>
<path d="M89.3278 139.161L89.8794 139.713L90.4309 139.161L89.8794 138.61L89.3278 139.161ZM80.7306 153.506L80.1791 152.954L80.7306 153.506ZM92.2014 142.035L92.753 141.483L92.2014 140.932L91.6499 141.483L92.2014 142.035ZM95.075 139.161L94.5235 138.61L93.9719 139.161L94.5235 139.713L95.075 139.161ZM92.2014 136.288L91.6499 136.839L92.2014 137.391L92.753 136.839L92.2014 136.288ZM78.4086 125.368C78.8975 124.88 79.6902 124.88 80.1791 125.368L81.2822 124.265C80.1841 123.167 78.4036 123.167 77.3055 124.265L78.4086 125.368ZM78.4086 127.139C77.9197 126.65 77.9197 125.857 78.4086 125.368L77.3055 124.265C76.2074 125.363 76.2074 127.144 77.3055 128.242L78.4086 127.139ZM89.8794 138.61L78.4086 127.139L77.3055 128.242L88.7763 139.713L89.8794 138.61ZM78.4086 151.184L89.8794 139.713L88.7763 138.61L77.3055 150.08L78.4086 151.184ZM78.4086 152.954C77.9197 152.465 77.9197 151.672 78.4086 151.184L77.3055 150.08C76.2074 151.179 76.2074 152.959 77.3055 154.057L78.4086 152.954ZM80.1791 152.954C79.6902 153.443 78.8975 153.443 78.4086 152.954L77.3055 154.057C78.4036 155.155 80.1841 155.155 81.2822 154.057L80.1791 152.954ZM91.6499 141.483L80.1791 152.954L81.2822 154.057L92.753 142.586L91.6499 141.483ZM104.224 152.954L92.753 141.483L91.6499 142.586L103.121 154.057L104.224 152.954ZM105.994 152.954C105.505 153.443 104.713 153.443 104.224 152.954L103.121 154.057C104.219 155.155 105.999 155.155 107.097 154.057L105.994 152.954ZM105.994 151.184C106.483 151.672 106.483 152.465 105.994 152.954L107.097 154.057C108.195 152.959 108.195 151.179 107.097 150.08L105.994 151.184ZM94.5235 139.713L105.994 151.184L107.097 150.08L95.6265 138.61L94.5235 139.713ZM105.994 127.139L94.5235 138.61L95.6265 139.713L107.097 128.242L105.994 127.139ZM105.994 125.368C106.483 125.857 106.483 126.65 105.994 127.139L107.097 128.242C108.195 127.144 108.195 125.363 107.097 124.265L105.994 125.368ZM104.224 125.368C104.713 124.88 105.505 124.88 105.994 125.368L107.097 124.265C105.999 123.167 104.219 123.167 103.121 124.265L104.224 125.368ZM92.753 136.839L104.224 125.368L103.121 124.265L91.6499 135.736L92.753 136.839ZM80.1791 125.368L91.6499 136.839L92.753 135.736L81.2822 124.265L80.1791 125.368Z" fill="#5395FF"/>
</g>
<g id="Combined Shape Copy 2">
<path fill-rule="evenodd" clip-rule="evenodd" d="M223.617 38.703C222.854 38.5685 222.126 39.0779 221.992 39.8409C221.857 40.6039 222.366 41.3314 223.129 41.466L234.159 43.4107L232.214 54.4399C232.079 55.2029 232.589 55.9305 233.352 56.065C234.115 56.1995 234.842 55.6901 234.977 54.9271L236.922 43.8979L247.951 45.8426C248.714 45.9772 249.441 45.4677 249.576 44.7047C249.71 43.9418 249.201 43.2142 248.438 43.0797L237.409 41.1349L239.353 30.1057C239.488 29.3428 238.979 28.6152 238.216 28.4806C237.453 28.3461 236.725 28.8556 236.591 29.6185L234.646 40.6477L223.617 38.703Z" fill="#FF9800"/>
<path d="M223.617 38.703L223.481 39.4711L223.617 38.703ZM234.159 43.4107L234.927 43.5462L235.062 42.778L234.294 42.6426L234.159 43.4107ZM234.977 54.9271L235.745 55.0625L234.977 54.9271ZM236.922 43.8979L237.057 43.1297L236.289 42.9943L236.153 43.7624L236.922 43.8979ZM247.951 45.8426L248.086 45.0745L247.951 45.8426ZM237.409 41.1349L236.641 40.9995L236.505 41.7676L237.273 41.9031L237.409 41.1349ZM236.591 29.6185L235.822 29.4831L236.591 29.6185ZM234.646 40.6477L234.51 41.4159L235.278 41.5513L235.414 40.7832L234.646 40.6477ZM222.76 39.9763C222.819 39.6376 223.142 39.4114 223.481 39.4711L223.752 37.9348C222.565 37.7255 221.433 38.5182 221.223 39.7054L222.76 39.9763ZM223.265 40.6978C222.926 40.6381 222.7 40.3151 222.76 39.9763L221.223 39.7054C221.014 40.8927 221.807 42.0248 222.994 42.2341L223.265 40.6978ZM234.294 42.6426L223.265 40.6978L222.994 42.2341L234.023 44.1789L234.294 42.6426ZM232.982 54.5754L234.927 43.5462L233.39 43.2753L231.446 54.3045L232.982 54.5754ZM233.487 55.2968C233.148 55.2371 232.922 54.9141 232.982 54.5754L231.446 54.3045C231.236 55.4917 232.029 56.6238 233.216 56.8331L233.487 55.2968ZM234.209 54.7917C234.149 55.1304 233.826 55.3566 233.487 55.2968L233.216 56.8331C234.404 57.0425 235.536 56.2498 235.745 55.0625L234.209 54.7917ZM236.153 43.7624L234.209 54.7917L235.745 55.0625L237.69 44.0333L236.153 43.7624ZM248.086 45.0745L237.057 43.1297L236.786 44.666L247.815 46.6108L248.086 45.0745ZM248.808 44.5693C248.748 44.908 248.425 45.1342 248.086 45.0745L247.815 46.6108C249.003 46.8201 250.135 46.0274 250.344 44.8402L248.808 44.5693ZM248.303 43.8478C248.641 43.9076 248.867 44.2306 248.808 44.5693L250.344 44.8402C250.553 43.653 249.761 42.5209 248.573 42.3115L248.303 43.8478ZM237.273 41.9031L248.303 43.8478L248.573 42.3115L237.544 40.3668L237.273 41.9031ZM238.585 29.9703L236.641 40.9995L238.177 41.2704L240.122 30.2412L238.585 29.9703ZM238.08 29.2488C238.419 29.3085 238.645 29.6315 238.585 29.9703L240.122 30.2412C240.331 29.054 239.538 27.9218 238.351 27.7125L238.08 29.2488ZM237.359 29.754C237.418 29.4152 237.741 29.1891 238.08 29.2488L238.351 27.7125C237.164 27.5032 236.032 28.2959 235.822 29.4831L237.359 29.754ZM235.414 40.7832L237.359 29.754L235.822 29.4831L233.878 40.5123L235.414 40.7832ZM223.481 39.4711L234.51 41.4159L234.781 39.8796L223.752 37.9348L223.481 39.4711Z" fill="#FF9800"/>
</g>
<g id="Combined Shape Copy">
<path fill-rule="evenodd" clip-rule="evenodd" d="M665.568 458.083C665.165 457.036 663.99 456.512 662.943 456.915C661.895 457.317 661.372 458.492 661.774 459.54L667.587 474.684L652.443 480.498C651.395 480.9 650.872 482.075 651.274 483.123C651.676 484.171 652.851 484.694 653.899 484.292L669.044 478.478L674.857 493.623C675.259 494.671 676.435 495.194 677.482 494.792C678.53 494.39 679.053 493.214 678.651 492.167L672.838 477.022L687.982 471.209C689.03 470.806 689.553 469.631 689.151 468.583C688.749 467.536 687.573 467.012 686.526 467.415L671.381 473.228L665.568 458.083Z" fill="#FF9800"/>
<path d="M665.568 458.083L666.296 457.804L665.568 458.083ZM661.774 459.54L662.502 459.26L661.774 459.54ZM667.587 474.684L667.867 475.413L668.595 475.133L668.315 474.405L667.587 474.684ZM653.899 484.292L653.619 483.564L653.899 484.292ZM669.044 478.478L669.772 478.199L669.492 477.471L668.764 477.75L669.044 478.478ZM674.857 493.623L674.129 493.903L674.857 493.623ZM672.838 477.022L672.558 476.294L671.83 476.573L672.109 477.302L672.838 477.022ZM671.381 473.228L670.653 473.508L670.932 474.236L671.661 473.956L671.381 473.228ZM663.222 457.643C663.868 457.395 664.592 457.717 664.839 458.363L666.296 457.804C665.739 456.354 664.113 455.63 662.663 456.186L663.222 457.643ZM662.502 459.26C662.254 458.615 662.577 457.891 663.222 457.643L662.663 456.186C661.213 456.743 660.489 458.369 661.046 459.819L662.502 459.26ZM668.315 474.405L662.502 459.26L661.046 459.819L666.859 474.964L668.315 474.405ZM652.722 481.226L667.867 475.413L667.308 473.956L652.163 479.77L652.722 481.226ZM652.002 482.844C651.754 482.198 652.077 481.474 652.722 481.226L652.163 479.77C650.713 480.326 649.989 481.953 650.546 483.403L652.002 482.844ZM653.619 483.564C652.974 483.811 652.25 483.489 652.002 482.844L650.546 483.403C651.102 484.852 652.729 485.577 654.178 485.02L653.619 483.564ZM668.764 477.75L653.619 483.564L654.178 485.02L669.323 479.207L668.764 477.75ZM675.585 493.343L669.772 478.199L668.315 478.758L674.129 493.903L675.585 493.343ZM677.203 494.064C676.557 494.311 675.833 493.989 675.585 493.343L674.129 493.903C674.685 495.352 676.312 496.077 677.762 495.52L677.203 494.064ZM677.923 492.446C678.171 493.092 677.848 493.816 677.203 494.064L677.762 495.52C679.212 494.963 679.936 493.337 679.379 491.887L677.923 492.446ZM672.109 477.302L677.923 492.446L679.379 491.887L673.566 476.742L672.109 477.302ZM687.703 470.48L672.558 476.294L673.117 477.75L688.262 471.937L687.703 470.48ZM688.423 468.863C688.671 469.508 688.348 470.233 687.703 470.48L688.262 471.937C689.712 471.38 690.436 469.754 689.879 468.304L688.423 468.863ZM686.805 468.143C687.451 467.895 688.175 468.217 688.423 468.863L689.879 468.304C689.323 466.854 687.696 466.13 686.246 466.686L686.805 468.143ZM671.661 473.956L686.805 468.143L686.246 466.686L671.102 472.5L671.661 473.956ZM664.839 458.363L670.653 473.508L672.109 472.949L666.296 457.804L664.839 458.363Z" fill="#FF9800"/>
</g>
<g id="001-target">
<path id="Oval" d="M555.115 52.0051C555.889 51.7234 556.288 50.8665 556.005 50.0912C555.723 49.3159 554.867 48.9158 554.093 49.1975C553.319 49.4793 552.92 50.3361 553.202 51.1114C553.485 51.8867 554.341 52.2869 555.115 52.0051Z" fill="#FF9800" stroke="#FF9800" stroke-width="0.52"/>
<path id="Shape" d="M547.748 49.5155C548.229 49.7394 548.754 49.7478 549.215 49.5801C549.676 49.4124 550.073 49.0682 550.296 48.5874C550.744 47.6266 550.328 46.4834 549.367 46.0344L534.91 39.2796C533.95 38.8313 532.81 39.2463 532.362 40.2071C531.914 41.1679 532.33 42.3111 533.291 42.7601L547.748 49.5155Z" fill="#FF9800" stroke="#FF9800" stroke-width="0.52"/>
<path id="Shape_2" d="M558.079 46.355C558.54 46.1871 558.937 45.8431 559.161 45.3629L565.893 30.8945C566.341 29.9331 565.925 28.7904 564.964 28.3415C564.003 27.8926 562.863 28.3082 562.416 29.269L555.683 43.7367C555.236 44.6981 555.652 45.8408 556.613 46.2897C557.093 46.5142 557.618 46.5229 558.079 46.355Z" fill="#FF9800" stroke="#FF9800" stroke-width="0.52"/>
<path id="Shape_3" d="M574.3 61.9231C574.78 62.147 575.306 62.1554 575.766 61.9877C576.227 61.82 576.624 61.4758 576.848 60.995C577.296 60.0342 576.88 58.891 575.919 58.4421L561.462 51.6872C560.501 51.2389 559.361 51.6539 558.914 52.6147C558.466 53.5755 558.882 54.7187 559.843 55.1677L574.3 61.9231Z" fill="#FF9800" stroke="#FF9800" stroke-width="0.52"/>
<path id="Shape_4" d="M545.713 72.9266C546.174 72.7587 546.571 72.4147 546.795 71.9346L553.527 57.4667C553.974 56.5053 553.559 55.3627 552.598 54.9138C551.637 54.4648 550.497 54.8804 550.05 55.8412L543.317 70.3084C542.87 71.2698 543.285 72.4124 544.246 72.8614C544.726 73.0859 545.252 73.0943 545.713 72.9266Z" fill="#FF9800" stroke="#FF9800" stroke-width="0.52"/>
</g>
<g id="001-target copy">
<path id="Oval_2" d="M543.235 183.741C543.875 183.509 544.204 182.801 543.971 182.16C543.738 181.52 543.031 181.189 542.391 181.422C541.752 181.655 541.422 182.363 541.655 183.003C541.889 183.644 542.596 183.974 543.235 183.741Z" fill="#FF9800"/>
<path id="Shape_5" d="M537.148 181.685C537.545 181.87 537.979 181.876 538.36 181.738C538.74 181.599 539.068 181.315 539.253 180.918C539.623 180.124 539.279 179.18 538.486 178.809L526.543 173.229C525.749 172.859 524.808 173.201 524.438 173.995C524.068 174.789 524.412 175.733 525.205 176.104L537.148 181.685Z" fill="#FF9800"/>
<path id="Shape_6" d="M545.683 179.074C546.064 178.935 546.392 178.651 546.577 178.254L552.138 166.302C552.508 165.508 552.164 164.564 551.37 164.193C550.577 163.822 549.635 164.165 549.265 164.959L543.704 176.911C543.334 177.705 543.678 178.649 544.471 179.02C544.868 179.205 545.302 179.212 545.683 179.074Z" fill="#FF9800"/>
<path id="Shape_7" d="M559.083 191.935C559.479 192.119 559.914 192.126 560.294 191.988C560.675 191.849 561.003 191.565 561.188 191.168C561.557 190.374 561.214 189.43 560.42 189.059L548.477 183.479C547.684 183.108 546.742 183.451 546.372 184.245C546.003 185.039 546.346 185.983 547.14 186.354L559.083 191.935Z" fill="#FF9800"/>
<path id="Shape_8" d="M535.467 201.024C535.848 200.885 536.176 200.601 536.361 200.205L541.922 188.253C542.292 187.459 541.948 186.515 541.155 186.144C540.361 185.773 539.419 186.116 539.05 186.91L533.488 198.861C533.118 199.655 533.462 200.599 534.255 200.97C534.652 201.156 535.086 201.163 535.467 201.024Z" fill="#FF9800"/>
</g>
<path id="Oval 2 Copy 2" d="M637.763 294.862C637.763 301.776 632.169 307.372 625.278 307.372C618.388 307.372 612.794 301.776 612.794 294.862C612.794 287.948 618.388 282.352 625.278 282.352C632.169 282.352 637.763 287.948 637.763 294.862Z" stroke="#FF9800" stroke-width="2.08"/>
<path id="Oval 2 Copy 3" d="M86.9232 326.123C86.9232 333.037 81.3288 338.633 74.4386 338.633C67.5484 338.633 61.954 333.037 61.954 326.123C61.954 319.209 67.5484 313.612 74.4386 313.612C81.3288 313.612 86.9232 319.209 86.9232 326.123Z" stroke="#FF9800" stroke-width="2.08"/>
</g>
<g id="Group 3">
<g id="Path Copy 7">
<path id="Mask" fill-rule="evenodd" clip-rule="evenodd" d="M537.987 431.49C544.166 437.68 547.568 445.909 547.568 454.66C547.568 472.726 532.894 487.426 514.855 487.426C506.117 487.426 497.903 484.02 491.723 477.831L441.8 427.823L488.062 381.484L537.987 431.49Z" fill="#F4F4F4"/>
<mask id="mask0" mask-type="alpha" maskUnits="userSpaceOnUse" x="441" y="381" width="107" height="107">
<path id="Mask_2" fill-rule="evenodd" clip-rule="evenodd" d="M537.987 431.49C544.166 437.68 547.568 445.909 547.568 454.66C547.568 472.726 532.894 487.426 514.855 487.426C506.117 487.426 497.903 484.02 491.723 477.831L441.8 427.823L488.062 381.484L537.987 431.49Z" fill="white"/>
</mask>
<g mask="url(#mask0)">
<path id="Path Copy 7_2" fill-rule="evenodd" clip-rule="evenodd" d="M522.383 431.49C528.562 437.68 531.964 445.909 531.964 454.66C531.964 472.726 517.29 487.426 499.251 487.426C490.513 487.426 482.3 484.02 476.119 477.831L426.196 427.823L472.459 381.484L522.383 431.49Z" fill="#DFEBFF"/>
</g>
</g>
<g id="Path Copy 6">
<path id="Mask_3" opacity="0.304129" fill-rule="evenodd" clip-rule="evenodd" d="M272.996 221.896L269.963 220.595V255.752L262.388 239.985C256.997 228.76 254.874 216.308 256.253 203.973C259.464 175.13 282.502 150.994 311.035 146.584C312.33 146.384 313.699 146.228 315.476 146.076C316.066 146.044 316.517 146.015 316.968 145.987C317.907 145.928 318.845 145.87 319.795 145.853C321.446 145.814 323.132 145.842 324.793 145.932C325.132 145.94 325.583 145.966 326.034 145.993L326.976 146.046C349.758 148.012 369.56 161.322 379.946 181.652L380.557 182.846H381.889C388.205 182.846 393.344 187.993 393.344 194.321V217.733C393.344 231.187 388.648 244.455 380.123 255.094L373.041 263.931L373.006 220.651L369.981 221.903C369.965 221.912 355.759 227.903 321.5 227.903C287.785 227.903 273.134 221.955 272.996 221.896Z" fill="white"/>
<mask id="mask1" mask-type="alpha" maskUnits="userSpaceOnUse" x="255" y="145" width="139" height="119">
<path id="Mask_4" fill-rule="evenodd" clip-rule="evenodd" d="M272.996 221.896L269.963 220.595V255.752L262.388 239.985C256.997 228.76 254.874 216.308 256.253 203.973C259.464 175.13 282.502 150.994 311.035 146.584C312.33 146.384 313.699 146.228 315.476 146.076C316.066 146.044 316.517 146.015 316.968 145.987C317.907 145.928 318.845 145.87 319.795 145.853C321.446 145.814 323.132 145.842 324.793 145.932C325.132 145.94 325.583 145.966 326.034 145.993L326.976 146.046C349.758 148.012 369.56 161.322 379.946 181.652L380.557 182.846H381.889C388.205 182.846 393.344 187.993 393.344 194.321V217.733C393.344 231.187 388.648 244.455 380.123 255.094L373.041 263.931L373.006 220.651L369.981 221.903C369.965 221.912 355.759 227.903 321.5 227.903C287.785 227.903 273.134 221.955 272.996 221.896Z" fill="white"/>
</mask>
<g mask="url(#mask1)">
<path id="Path Copy 6_2" fill-rule="evenodd" clip-rule="evenodd" d="M257.392 226.585L254.359 225.284V260.441L246.785 244.674C241.393 233.449 239.271 220.997 240.649 208.662C243.86 179.819 266.898 155.683 295.431 151.273C296.727 151.073 298.096 150.917 299.873 150.765C300.462 150.733 300.913 150.704 301.364 150.676C302.303 150.617 303.242 150.559 304.192 150.542C305.843 150.503 307.529 150.53 309.189 150.621C309.529 150.629 309.98 150.655 310.431 150.682L311.373 150.735C334.154 152.701 353.957 166.011 364.343 186.341L364.953 187.535H366.285C372.601 187.535 377.741 192.682 377.741 199.01V222.422C377.741 235.876 373.044 249.144 364.52 259.783L357.437 268.62L357.402 225.34L354.378 226.592C354.362 226.601 340.156 232.592 305.897 232.592C272.181 232.592 257.531 226.644 257.392 226.585Z" fill="white"/>
</g>
</g>
<path id="Path Copy 3" opacity="0.601339" fill-rule="evenodd" clip-rule="evenodd" d="M484.971 378.391L438.709 424.729L420.208 406.198L466.47 359.858L484.971 378.391Z" fill="white"/>
<g id="Path Copy 2">
<path id="Mask_5" opacity="0.299051" fill-rule="evenodd" clip-rule="evenodd" d="M368.667 227.125V260.987C368.667 287.039 347.508 308.231 321.499 308.231C295.49 308.231 274.333 287.039 274.333 260.987V227.125L279.222 228.268C287.049 230.099 300.738 232.28 321.499 232.28C342.26 232.28 355.948 230.099 363.777 228.268L368.667 227.125Z" fill="white"/>
<mask id="mask2" mask-type="alpha" maskUnits="userSpaceOnUse" x="274" y="227" width="95" height="82">
<path id="Mask_6" fill-rule="evenodd" clip-rule="evenodd" d="M368.667 227.125V260.987C368.667 287.039 347.508 308.231 321.499 308.231C295.49 308.231 274.333 287.039 274.333 260.987V227.125L279.222 228.268C287.049 230.099 300.738 232.28 321.499 232.28C342.26 232.28 355.948 230.099 363.777 228.268L368.667 227.125Z" fill="white"/>
</mask>
<g mask="url(#mask2)">
<path id="Path Copy 2_2" fill-rule="evenodd" clip-rule="evenodd" d="M353.063 227.125V260.987C353.063 287.039 331.904 308.231 305.896 308.231C279.887 308.231 258.729 287.039 258.729 260.987V227.125L263.619 228.268C271.445 230.099 285.135 232.28 305.896 232.28C326.656 232.28 340.344 230.099 348.174 228.268L353.063 227.125Z" fill="white"/>
</g>
</g>
<g id="Path Copy 5">
<path id="Mask_7" opacity="0.399888" fill-rule="evenodd" clip-rule="evenodd" d="M221.574 358.643L219.267 356.276L221.161 353.567C227.869 343.969 237.83 337.236 249.205 334.61L270.074 329.787L296.486 369.469L321.5 344.409L346.513 369.465L372.927 329.781L393.795 334.605C405.166 337.229 415.124 343.962 421.839 353.559L423.733 356.268L421.426 358.637C394.871 385.903 359.383 400.919 321.5 400.919C283.622 400.919 248.134 385.906 221.574 358.643Z" fill="white"/>
<mask id="mask3" mask-type="alpha" maskUnits="userSpaceOnUse" x="219" y="329" width="205" height="72">
<path id="Mask_8" fill-rule="evenodd" clip-rule="evenodd" d="M221.574 358.643L219.267 356.276L221.161 353.567C227.869 343.969 237.83 337.236 249.205 334.61L270.074 329.787L296.486 369.469L321.5 344.409L346.513 369.465L372.927 329.781L393.795 334.605C405.166 337.229 415.124 343.962 421.839 353.559L423.733 356.268L421.426 358.637C394.871 385.903 359.383 400.919 321.5 400.919C283.622 400.919 248.134 385.906 221.574 358.643Z" fill="white"/>
</mask>
<g mask="url(#mask3)">
<path id="Path Copy 5_2" opacity="0.900502" fill-rule="evenodd" clip-rule="evenodd" d="M205.971 358.643L203.663 356.276L205.558 353.567C212.266 343.969 222.226 337.236 233.602 334.61L254.471 329.787L280.882 369.469L305.896 344.409L330.909 369.465L357.324 329.781L378.191 334.605C389.562 337.229 399.521 343.962 406.235 353.559L408.13 356.268L405.822 358.637C379.267 385.903 343.779 400.919 305.896 400.919C268.018 400.919 232.531 385.906 205.971 358.643Z" fill="white"/>
</g>
</g>
<path id="Path Copy" fill-rule="evenodd" clip-rule="evenodd" d="M292.84 321.541V304.28L298.603 307.158C305.844 310.774 313.548 312.61 321.5 312.61C329.465 312.61 337.169 310.776 344.396 307.16L350.161 304.276V321.533L321.502 338.758L292.84 321.541Z" fill="white"/>
<mask id="mask4" mask-type="alpha" maskUnits="userSpaceOnUse" x="177" y="116" width="375" height="376">
<path id="Clip 2" fill-rule="evenodd" clip-rule="evenodd" d="M177.428 116.677H551.938V491.803H177.428V116.677Z" fill="white"/>
</mask>
<g mask="url(#mask4)">
<path id="Fill 1" fill-rule="evenodd" clip-rule="evenodd" d="M397.61 383.555L401.627 380.851C417.323 370.288 430.629 356.962 441.172 341.241L443.872 337.216L463.382 356.758L417.119 403.104M221.574 358.643L219.266 356.276L221.161 353.567C227.869 343.969 237.829 337.236 249.205 334.61L270.074 329.787L296.485 369.469L321.5 344.409L346.512 369.464L372.927 329.781L393.794 334.605C405.165 337.229 415.124 343.962 421.838 353.559L423.733 356.268L421.425 358.637C394.87 385.903 359.382 400.919 321.5 400.919C283.621 400.919 248.134 385.906 221.574 358.643ZM354.53 321.033V300.539L355.853 299.349C364.38 291.684 370.18 281.292 372.18 270.085L372.443 268.605L373.615 267.668C388.704 255.603 397.712 236.936 397.712 217.733V194.32C397.712 186.789 392.363 180.252 384.993 178.776L383.213 178.418L382.312 176.838C380.93 174.408 379.3 171.958 377.329 169.348L364.133 151.879L382.632 163.565C416.378 184.883 436.527 221.302 436.527 260.988C436.527 287.084 427.373 312.763 410.749 333.294L408.746 335.769L405.894 334.361C402.242 332.558 398.502 331.206 394.773 330.343M352.71 325.109L368.376 328.727L345.84 362.594L325.025 341.748M292.839 321.541V304.28L298.602 307.158C305.843 310.774 313.547 312.61 321.5 312.61C329.465 312.61 337.168 310.776 344.396 307.16L350.16 304.276V321.533L321.501 338.758M290.289 325.109L317.981 341.747L297.168 362.594L274.632 328.727M265.85 169.238C258.086 179.424 253.264 191.264 251.906 203.48C249.716 223.082 255.936 242.852 268.972 257.723L269.962 258.853V260.988C269.962 275.549 276.225 289.531 287.147 299.349L288.469 300.539V321.033L248.226 330.343C244.519 331.195 240.779 332.547 237.104 334.361L234.251 335.767L232.248 333.294C215.628 312.763 206.472 287.084 206.472 260.988C206.472 221.21 226.694 184.743 260.566 163.437L279.22 151.703M368.667 227.126V260.988C368.667 287.039 347.508 308.231 321.5 308.231C295.491 308.231 274.334 287.039 274.334 260.988V227.126L279.223 228.269C287.049 230.1 300.739 232.28 321.5 232.28C342.26 232.28 355.948 230.1 363.778 228.269M272.995 223.459L269.962 222.158V257.315L262.387 241.548C256.996 230.323 254.873 217.871 256.252 205.536C259.463 176.693 282.501 152.557 311.034 148.147C312.33 147.947 313.699 147.791 315.476 147.639C316.065 147.607 316.516 147.578 316.967 147.55C317.906 147.491 318.845 147.433 319.794 147.416C321.445 147.377 323.131 147.404 324.792 147.495C325.132 147.503 325.583 147.529 326.034 147.556L326.975 147.609C349.757 149.575 369.56 162.885 379.946 183.215L380.556 184.409H381.888C388.204 184.409 393.343 189.556 393.343 195.884V219.296C393.343 232.75 388.647 246.018 380.122 256.657L373.04 265.494L373.005 222.214L369.98 223.466C369.964 223.475 355.759 229.466 321.5 229.466C287.784 229.466 273.134 223.518 272.995 223.459ZM216.155 352.895L213.003 349.002C192.88 324.173 181.798 292.915 181.798 260.988C181.798 183.828 244.467 121.054 321.5 121.054C398.532 121.054 461.202 183.828 461.202 260.988C461.202 292.91 450.122 324.17 430.004 349.008L426.852 352.901L423.77 348.951C421.357 345.855 418.609 343.049 415.604 340.61L412.542 338.123L414.99 335.031C431.696 313.922 440.895 287.626 440.895 260.988C440.895 197.203 391.018 144.805 327.345 141.699C326.145 141.599 325.085 141.563 324.019 141.527C323.34 141.508 322.92 141.479 322.499 141.447C322.167 141.423 321.836 141.394 321.5 141.394C321.064 141.425 320.848 141.439 320.626 141.444C318.779 141.461 316.889 141.557 314.967 141.731C251.619 145.267 202.104 197.646 202.104 260.988C202.104 287.629 211.306 313.923 228.014 335.025L230.465 338.118L227.402 340.605C224.395 343.046 221.647 345.852 219.236 348.944M484.973 378.391L438.71 424.729L420.209 406.198L466.472 359.858M537.987 431.49C544.166 437.68 547.568 445.909 547.568 454.66C547.568 472.726 532.894 487.426 514.855 487.426C506.117 487.426 497.904 484.02 491.723 477.831L441.8 427.823L488.063 381.484M417.119 409.292L488.635 480.923C495.641 487.94 504.951 491.803 514.855 491.803C535.302 491.803 551.938 475.141 551.938 454.66C551.938 444.74 548.08 435.413 541.074 428.398L469.56 356.764L480.622 345.685L477.532 342.591L466.472 353.669L446.146 333.312L447.601 330.683C459.358 309.422 465.573 285.321 465.573 260.988C465.573 181.415 400.942 116.677 321.5 116.677C242.059 116.677 177.428 181.415 177.428 260.988C177.428 340.559 242.059 405.296 321.5 405.296C345.795 405.296 369.856 399.072 391.08 387.296L393.705 385.839L414.031 406.198L402.969 417.276L406.059 420.37" fill="#C0C0C0"/>
</g>
</g>
</g>
</g>
</svg>
