<svg width="14" height="14" viewBox="0 0 14 14" fill="none" xmlns="http://www.w3.org/2000/svg">
<rect x="0.5" y="0.5" width="13" height="13" rx="1.5" fill="#F6F8FD" stroke="#5495FF"/>
<path d="M7.42383 10.6562C6.49414 10.6562 5.77344 10.3711 5.26172 9.80078C4.75391 9.22656 4.5 8.41602 4.5 7.36914C4.5 6.29492 4.75781 5.46484 5.27344 4.87891C5.79297 4.29297 6.53125 4 7.48828 4C7.79688 4 8.10547 4.0332 8.41406 4.09961C8.72266 4.16602 8.96484 4.24414 9.14062 4.33398L8.8418 5.16016C8.62695 5.07422 8.39258 5.00391 8.13867 4.94922C7.88477 4.89062 7.66016 4.86133 7.46484 4.86133C6.16016 4.86133 5.50781 5.69336 5.50781 7.35742C5.50781 8.14648 5.66602 8.75195 5.98242 9.17383C6.30273 9.5957 6.77539 9.80664 7.40039 9.80664C7.93555 9.80664 8.48438 9.69141 9.04688 9.46094V10.3223C8.61719 10.5449 8.07617 10.6562 7.42383 10.6562Z" fill="#5495FF"/>
</svg>
