<svg width="16" height="16" viewBox="0 0 16 16" fill="none" xmlns="http://www.w3.org/2000/svg">
<path d="M13.7114 7.354C13.7114 8.04736 13.604 8.68213 13.3892 9.2583C13.1743 9.83447 12.8716 10.2812 12.481 10.5986C12.0903 10.916 11.6411 11.0747 11.1333 11.0747C10.7134 11.0747 10.3594 10.9478 10.0713 10.6938C9.7832 10.4399 9.6123 10.1152 9.55859 9.71973H9.5C9.30469 10.1445 9.02393 10.4766 8.65771 10.7158C8.29639 10.9551 7.8667 11.0747 7.36865 11.0747C6.63623 11.0747 6.0625 10.8257 5.64746 10.3276C5.2373 9.82471 5.03223 9.14355 5.03223 8.28418C5.03223 7.28809 5.32031 6.47998 5.89648 5.85986C6.47266 5.23486 7.22949 4.92236 8.16699 4.92236C8.49902 4.92236 8.875 4.9541 9.29492 5.01758C9.71484 5.07617 10.0933 5.15918 10.4302 5.2666L10.2471 8.70898V8.87012C10.2471 9.73926 10.5718 10.1738 11.2212 10.1738C11.6655 10.1738 12.0269 9.9126 12.3052 9.39014C12.5835 8.86279 12.7227 8.1792 12.7227 7.33936C12.7227 6.45557 12.542 5.68164 12.1807 5.01758C11.8193 4.35352 11.3042 3.84326 10.6353 3.48682C9.97119 3.12549 9.20703 2.94482 8.34277 2.94482C7.25391 2.94482 6.30664 3.17188 5.50098 3.62598C4.69531 4.0752 4.08008 4.71973 3.65527 5.55957C3.23047 6.39453 3.01807 7.36133 3.01807 8.45996C3.01807 9.94922 3.41113 11.0942 4.19727 11.895C4.9834 12.6958 6.11621 13.0962 7.5957 13.0962C8.62109 13.0962 9.68555 12.8862 10.7891 12.4663V13.4404C9.85156 13.8506 8.78711 14.0557 7.5957 14.0557C5.82324 14.0557 4.44629 13.5698 3.46484 12.5981C2.48828 11.6216 2 10.2593 2 8.51123C2 7.2417 2.26123 6.11133 2.78369 5.12012C3.30615 4.12891 4.05078 3.3623 5.01758 2.82031C5.98438 2.27344 7.09277 2 8.34277 2C9.39258 2 10.3252 2.22217 11.1406 2.6665C11.9609 3.10596 12.5933 3.7334 13.0376 4.54883C13.4868 5.35938 13.7114 6.29443 13.7114 7.354ZM6.13818 8.31348C6.13818 9.55371 6.61426 10.1738 7.56641 10.1738C8.57715 10.1738 9.12646 9.40967 9.21436 7.88135L9.31689 5.96973C8.96533 5.87207 8.58203 5.82324 8.16699 5.82324C7.53223 5.82324 7.03418 6.04297 6.67285 6.48242C6.31641 6.92188 6.13818 7.53223 6.13818 8.31348Z" fill="#5495FF"/>
</svg>
