<svg width="18" height="13" viewBox="0 0 18 13" fill="none" xmlns="http://www.w3.org/2000/svg">
<path d="M4.19335 3.73167C4.32303 3.01844 4.94422 2.5 5.66915 2.5H12.3308C13.0558 2.5 13.677 3.01844 13.8067 3.73167L15.0794 10.7317C15.2468 11.6524 14.5394 12.5 13.6036 12.5H4.39643C3.46057 12.5 2.75321 11.6524 2.92062 10.7317L4.19335 3.73167Z" fill="#F6F8FD" stroke="#5495FF"/>
<path d="M2.06632 1.58792C2.2503 0.943967 2.83888 0.5 3.5086 0.5H14.4914C15.1611 0.5 15.7497 0.943966 15.9337 1.58792L16.0245 1.90567C16.4079 3.24765 14.9114 4.34001 13.7501 3.56583L12.7812 2.91987C12.3705 2.64609 11.888 2.5 11.3944 2.5H6.60555C6.11199 2.5 5.62947 2.6461 5.2188 2.91987L4.24986 3.56583C3.08859 4.34001 1.59211 3.24765 1.97553 1.90567L2.06632 1.58792Z" fill="#F6F8FD" stroke="#5495FF"/>
<circle cx="9" cy="7" r="2.5" fill="#F1F2F7" stroke="#5495FF"/>
</svg>
