<svg width="16" height="16" viewBox="0 0 16 16" fill="none" xmlns="http://www.w3.org/2000/svg">
<rect width="16" height="16" fill="#F0F0F0"/>
<rect width="1440" height="1080" transform="translate(-536 -760)" fill="white"/>
<rect x="-536" y="-760" width="1440" height="1080" fill="#F6F8FD"/>
<g filter="url(#filter0_d)">
<rect x="-401" y="-674" width="1170" height="768" rx="5" fill="white"/>
</g>
<rect x="2.70711" y="5" width="4" height="12.5" transform="rotate(-45 2.70711 5)" fill="#F6F8FD" stroke="#5495FF"/>
<line x1="7.18194" y1="3.3536" x2="5.76772" y2="4.76781" stroke="#5495FF"/>
<line x1="10.0104" y1="6.18201" x2="8.59615" y2="7.59623" stroke="#5495FF"/>
<line x1="11.4246" y1="7.59623" x2="10.0104" y2="9.01044" stroke="#5495FF"/>
<line x1="12.8388" y1="9.01044" x2="11.4246" y2="10.4247" stroke="#5495FF"/>
<path d="M14.253 5.03985L6.11324 13.1797L2.82014 13.6443L3.28481 10.3512L11.4246 2.21142L14.253 5.03985Z" fill="#F6F8FD" stroke="#5495FF"/>
<path d="M3.27281 11.0302L5.4343 13.1917L2.84051 13.624L3.27281 11.0302Z" fill="#5495FF" stroke="#5495FF"/>
<defs>
<filter id="filter0_d" x="-404" y="-676" width="1176" height="774" filterUnits="userSpaceOnUse" color-interpolation-filters="sRGB">
<feFlood flood-opacity="0" result="BackgroundImageFix"/>
<feColorMatrix in="SourceAlpha" type="matrix" values="0 0 0 0 0 0 0 0 0 0 0 0 0 0 0 0 0 0 127 0"/>
<feOffset dy="1"/>
<feGaussianBlur stdDeviation="1.5"/>
<feColorMatrix type="matrix" values="0 0 0 0 0.12549 0 0 0 0 0.294118 0 0 0 0 0.572549 0 0 0 0.15 0"/>
<feBlend mode="normal" in2="BackgroundImageFix" result="effect1_dropShadow"/>
<feBlend mode="normal" in="SourceGraphic" in2="effect1_dropShadow" result="shape"/>
</filter>
</defs>
</svg>
