<svg width="16" height="16" viewBox="0 0 16 16" fill="none" xmlns="http://www.w3.org/2000/svg">
<mask id="path-1-inside-1" fill="white">
<path fill-rule="evenodd" clip-rule="evenodd" d="M8.00003 0.941177C7.59397 0.941177 7.19592 0.975463 6.80862 1.0413C6.19579 0.696607 5.48853 0.5 4.73534 0.5C2.39625 0.5 0.500046 2.39621 0.500046 4.73529C0.500046 5.48847 0.696649 6.19574 1.04133 6.80856C0.975496 7.19587 0.941208 7.59393 0.941208 8C0.941208 11.8985 4.10155 15.0588 8.00003 15.0588C8.41242 15.0588 8.81655 15.0235 9.20955 14.9556C9.81131 15.284 10.5015 15.4706 11.2353 15.4706C13.5744 15.4706 15.4706 13.5744 15.4706 11.2353C15.4706 10.5015 15.284 9.81125 14.9556 9.20948C15.0235 8.81649 15.0589 8.41238 15.0589 8C15.0589 4.10152 11.8985 0.941177 8.00003 0.941177Z"/>
</mask>
<path fill-rule="evenodd" clip-rule="evenodd" d="M8.00003 0.941177C7.59397 0.941177 7.19592 0.975463 6.80862 1.0413C6.19579 0.696607 5.48853 0.5 4.73534 0.5C2.39625 0.5 0.500046 2.39621 0.500046 4.73529C0.500046 5.48847 0.696649 6.19574 1.04133 6.80856C0.975496 7.19587 0.941208 7.59393 0.941208 8C0.941208 11.8985 4.10155 15.0588 8.00003 15.0588C8.41242 15.0588 8.81655 15.0235 9.20955 14.9556C9.81131 15.284 10.5015 15.4706 11.2353 15.4706C13.5744 15.4706 15.4706 13.5744 15.4706 11.2353C15.4706 10.5015 15.284 9.81125 14.9556 9.20948C15.0235 8.81649 15.0589 8.41238 15.0589 8C15.0589 4.10152 11.8985 0.941177 8.00003 0.941177Z" fill="#F6F8FD"/>
<path d="M6.80862 1.0413L6.31838 1.91289L6.62706 2.08651L6.9762 2.02716L6.80862 1.0413ZM1.04133 6.80856L2.02719 6.97614L2.08654 6.627L1.91293 6.31833L1.04133 6.80856ZM9.20955 14.9556L9.68855 14.0778L9.38272 13.9109L9.0394 13.9702L9.20955 14.9556ZM14.9556 9.20948L13.9702 9.03934L13.9109 9.38266L14.0778 9.68849L14.9556 9.20948ZM6.9762 2.02716C7.30837 1.97069 7.65036 1.94118 8.00003 1.94118V-0.0588226C7.53758 -0.0588226 7.08348 -0.0197669 6.64104 0.0554399L6.9762 2.02716ZM4.73534 1.5C5.31239 1.5 5.85134 1.65019 6.31838 1.91289L7.29886 0.169709C6.54025 -0.25698 5.66467 -0.5 4.73534 -0.5V1.5ZM1.50005 4.73529C1.50005 2.94849 2.94854 1.5 4.73534 1.5V-0.5C1.84397 -0.5 -0.499954 1.84392 -0.499954 4.73529H1.50005ZM1.91293 6.31833C1.65024 5.85128 1.50005 5.31234 1.50005 4.73529H-0.499954C-0.499954 5.66461 -0.256939 6.54019 0.169743 7.29879L1.91293 6.31833ZM1.94121 8C1.94121 7.65032 1.97073 7.30832 2.02719 6.97614L0.0554768 6.64097C-0.0197342 7.08342 -0.0587921 7.53754 -0.0587921 8H1.94121ZM8.00003 14.0588C4.65384 14.0588 1.94121 11.3462 1.94121 8H-0.0587921C-0.0587921 12.4508 3.54927 16.0588 8.00003 16.0588V14.0588ZM9.0394 13.9702C8.70235 14.0284 8.35515 14.0588 8.00003 14.0588V16.0588C8.46969 16.0588 8.93074 16.0185 9.3797 15.941L9.0394 13.9702ZM11.2353 14.4706C10.6731 14.4706 10.1471 14.328 9.68855 14.0778L8.73055 15.8334C9.47554 16.2399 10.33 16.4706 11.2353 16.4706V14.4706ZM14.4706 11.2353C14.4706 13.0221 13.0221 14.4706 11.2353 14.4706V16.4706C14.1267 16.4706 16.4706 14.1267 16.4706 11.2353H14.4706ZM14.0778 9.68849C14.328 10.147 14.4706 10.673 14.4706 11.2353H16.4706C16.4706 10.3299 16.24 9.47548 15.8334 8.73048L14.0778 9.68849ZM14.0589 8C14.0589 8.35511 14.0284 8.7023 13.9702 9.03934L15.9411 9.37963C16.0186 8.93068 16.0589 8.46965 16.0589 8H14.0589ZM8.00003 1.94118C11.3462 1.94118 14.0589 4.65381 14.0589 8H16.0589C16.0589 3.54924 12.4508 -0.0588226 8.00003 -0.0588226V1.94118Z" fill="#5495FF" mask="url(#path-1-inside-1)"/>
<path d="M11 9.37471C11 9.02391 10.9307 8.72228 10.7926 8.47818C10.6544 8.23514 10.4602 8.03163 10.2158 7.87281C9.97551 7.71732 9.68064 7.58413 9.34003 7.47513C9.00333 7.36833 8.62262 7.27001 8.20846 7.1815C7.88072 7.10623 7.64224 7.04764 7.5001 7.00867C7.36119 6.97066 7.22304 6.91673 7.08832 6.84985C6.95846 6.78535 6.85623 6.7077 6.78268 6.62005C6.71408 6.53639 6.65854 6.43979 6.65854 6.32393C6.65854 6.13462 6.78449 5.97513 6.99838 5.83613C7.2197 5.6915 7.51791 5.63167 7.88472 5.63167C8.27925 5.63167 8.56765 5.68493 8.73933 5.81469C8.91664 5.94788 9.07107 6.13805 9.19846 6.37957C9.30888 6.56822 9.40835 6.69979 9.5041 6.78401C9.60709 6.87414 9.75581 6.91463 9.94531 6.91463C10.1537 6.91463 10.331 6.84689 10.4707 6.70217C10.6103 6.55821 10.7073 6.39282 10.7073 6.21103C10.7073 6.02248 10.6267 5.82736 10.5205 5.63129C10.415 5.43683 10.2485 5.2501 10.023 5.07479C9.79983 4.90101 9.51486 4.76048 9.17816 4.65635C8.84242 4.55202 8.44026 4.5 7.98295 4.5C7.41178 4.5 6.90615 4.57841 6.48209 4.73476C6.05154 4.89272 5.71665 5.12433 5.48866 5.42035C5.25753 5.71875 5.12195 6.06526 5.12195 6.44989C5.12195 6.85347 5.25171 7.19569 5.47142 7.46942C5.68807 7.73828 5.98352 7.95322 6.35128 8.10871C6.70989 8.2601 7.16073 8.39396 7.69188 8.50724C8.08241 8.58927 8.39844 8.66702 8.63138 8.73895C8.85356 8.80764 9.03821 8.90854 9.17797 9.0383C9.31031 9.16159 9.38281 9.31955 9.38281 9.52048C9.38281 9.77449 9.25057 9.98285 8.99571 10.1557C8.73514 10.3326 8.38862 10.4024 7.96551 10.4024C7.65739 10.4024 7.40749 10.3781 7.22199 10.2904C7.03735 10.2044 6.89272 10.0926 6.79297 9.96122C6.68769 9.82308 6.58889 9.64968 6.49819 9.44274C6.41721 9.25353 6.31688 9.10614 6.19836 9.00705C6.07498 8.90358 5.92321 8.84146 5.74752 8.84146C5.53363 8.84146 5.35385 8.91759 5.21322 9.0483C5.07193 9.18054 5 9.34251 5 9.52868C5 9.82717 5.11023 10.1365 5.32841 10.4475C5.54249 10.7559 5.8267 11.0065 6.17064 11.191C6.65101 11.4449 7.26782 11.5732 8.00305 11.5732C8.6149 11.5732 9.15339 11.4789 9.60175 11.2938C10.0552 11.107 10.4047 10.8432 10.6417 10.5099C10.8795 10.1758 10.9995 9.79383 11 9.37471Z" fill="#5495FF"/>
</svg>
