<svg width="60" height="60" viewBox="0 0 60 60" fill="none" xmlns="http://www.w3.org/2000/svg">
<circle cx="30" cy="30" r="30" fill="white"/>
<circle cx="30" cy="30" r="25" fill="#BAB3FF"/>
<path d="M30 55C43.8071 55 55 43.8071 55 30C55 16.1929 43.8071 5 30 5C16.1929 5 5 16.1929 5 30C5 43.8071 16.1929 55 30 55Z" fill="#BAB3FF"/>
<path fill-rule="evenodd" clip-rule="evenodd" d="M43.4941 24.2467C42.3039 23.3018 40.7294 22.8808 39.3167 23.0597C38.1385 23.2038 37.0535 23.6804 36.1878 24.4272C36.1721 24.4276 36.1573 24.4235 36.1413 24.4239C36.1509 24.4318 36.1577 24.4398 36.1669 24.4494C36.1489 24.4658 36.1305 24.4821 36.1136 24.4988C36.1088 24.4896 36.1044 24.4808 36.0992 24.4733C36.1541 24.395 36.2158 24.3234 36.2731 24.2471C37.3099 23.4823 38.2983 22.8632 39.2883 22.4624C40.3103 22.0444 41.2991 21.8991 42.2998 22.0029C43.301 22.1051 44.3331 22.4553 45.3951 22.9462C46.4616 23.4295 47.5309 24.0578 48.7497 24.6371C48.232 23.347 47.4228 22.2341 46.3819 21.3181C45.3431 20.4163 44.017 19.7127 42.5258 19.5636C41.037 19.3969 39.4798 19.8903 38.3596 20.8029C38.0022 21.0936 37.6813 21.4191 37.3957 21.768C37.4546 21.5409 37.5211 21.3152 37.5563 21.0794C37.7895 19.6142 37.4562 17.9489 36.6064 16.6647C35.7679 15.3663 34.5424 14.485 33.2892 13.9636C32.0232 13.4463 30.6991 13.2344 29.3686 13.3759C30.4391 14.2161 31.4775 14.898 32.3946 15.6473C33.3132 16.3874 34.1029 17.1661 34.667 18.0364C35.2331 18.9056 35.584 19.8827 35.7218 21.0216C35.8356 21.9338 35.8212 22.9185 35.7302 23.9795C35.6986 22.8758 35.3593 21.7738 34.7627 20.787C34.0063 19.5292 32.703 18.5123 31.2511 18.1407C29.8025 17.75 28.3257 17.9401 27.0569 18.418C25.7801 18.9093 24.6567 19.6687 23.7497 20.6961C25.083 20.5826 26.2937 20.3745 27.4547 20.2986C28.6106 20.2153 29.6955 20.253 30.6706 20.5131C31.645 20.7703 32.5268 21.2582 33.3525 22.0155C33.7836 22.4067 34.193 22.862 34.5936 23.3634C34.1061 23.2226 33.5636 23.218 33.0724 23.386C32.4222 23.5954 31.8954 24.0364 31.5132 24.5378C31.133 25.0459 30.8717 25.6172 30.7544 26.2404C31.2431 25.866 31.6638 25.484 32.0969 25.1657C32.5244 24.8452 32.9522 24.5897 33.3877 24.4461C33.822 24.3041 34.2755 24.2727 34.7667 24.3606C34.9666 24.3946 35.1742 24.4578 35.3829 24.5244C34.8533 25.0609 34.3525 25.6306 33.8873 26.2291C32.804 27.6302 31.8733 29.164 31.046 30.7506C30.2187 32.3372 29.492 33.9845 28.8453 35.6649C28.1995 37.3604 27.6162 40.6634 27.131 42.4997L30.9799 42.4972C31.0937 40.8871 31.3505 38.1998 31.6518 36.5386C31.9591 34.8591 32.3469 33.1895 32.8381 31.5556C33.332 29.9208 33.9306 28.3162 34.699 26.7954C35.0339 26.1361 35.4109 25.494 35.822 24.8758C35.9602 24.8666 36.0936 24.8595 36.229 24.8511C36.2595 24.8645 36.2887 24.875 36.3208 24.8888C36.3156 24.8746 36.3068 24.8616 36.2995 24.849C36.3857 24.8431 36.4738 24.8381 36.5584 24.8335C36.8288 25.1045 37.0768 25.3768 37.2667 25.6628C37.5535 26.0867 37.723 26.5269 37.7887 27.0006C37.8548 27.4714 37.8187 27.987 37.7274 28.529C37.6401 29.0727 37.4926 29.6322 37.3793 30.258C37.8668 29.8764 38.2474 29.3847 38.5211 28.8054C38.7867 28.2283 38.9405 27.5418 38.8392 26.8385C38.7486 26.1357 38.3712 25.4727 37.8652 25.0572C37.7567 24.968 37.6433 24.8921 37.5255 24.8209C38.1437 24.8285 38.7318 24.8766 39.2891 24.9809C40.3716 25.1745 41.2898 25.5841 42.0955 26.2144C42.9016 26.8431 43.6115 27.7005 44.2774 28.6932C44.9508 29.6854 45.5578 30.7996 46.3118 31.956C46.5053 30.5717 46.3639 29.1811 45.9256 27.8337C45.4837 26.4988 44.6968 25.1803 43.4941 24.2467Z" fill="white"/>
<path fill-rule="evenodd" clip-rule="evenodd" d="M15.6253 35.1808C15.5364 36.0795 15.6454 36.9599 15.9715 37.7862C16.2928 36.9578 16.5245 36.1779 16.8176 35.4633C17.1052 34.7495 17.4411 34.1129 17.8723 33.6024C18.3035 33.0914 18.839 32.6998 19.5125 32.4173C19.8586 32.2686 20.2326 32.1501 20.6317 32.0521C20.5663 32.1139 20.5035 32.1778 20.4463 32.2494C20.1783 32.5826 20.0296 33.0492 20.0728 33.4971C20.1086 33.9467 20.3078 34.3481 20.5633 34.6647C20.8245 34.9813 21.1424 35.2281 21.5129 35.3904C21.3492 35.021 21.1728 34.6971 21.0377 34.3741C20.8997 34.0532 20.8018 33.74 20.7766 33.4392C20.751 33.1362 20.7971 32.8387 20.9215 32.5336C21.0031 32.3282 21.1245 32.1224 21.2604 31.914C21.3159 31.9042 21.3736 31.8944 21.4304 31.8846C21.4279 31.8936 21.424 31.9029 21.4223 31.9127C21.4411 31.8991 21.4586 31.8884 21.4766 31.8752C21.5651 31.8603 21.6527 31.8446 21.7437 31.8292C22.0992 32.1497 22.4364 32.4893 22.7488 32.846C23.4668 33.6701 24.0864 34.5718 24.6433 35.5072C25.1975 36.443 25.6907 37.4163 26.1326 38.4079C26.5676 39.3889 27.2223 41.4352 27.5287 42.4132L29.9236 41.41C29.3437 40.3481 28.4881 38.3951 27.8245 37.4448C27.1625 36.5035 26.4535 35.5954 25.6877 34.7397C24.9223 33.884 24.0975 33.0765 23.1928 32.3738C22.8052 32.0738 22.3984 31.7977 21.9775 31.5458C22.1031 31.4734 22.2283 31.4031 22.3527 31.3519C22.6586 31.2232 22.9569 31.1747 23.2586 31.1968C23.5616 31.2198 23.8757 31.3132 24.1988 31.447C24.5257 31.5778 24.8535 31.7508 25.2245 31.9085C25.0582 31.5411 24.8061 31.2275 24.4864 30.971C24.1663 30.7187 23.7612 30.5252 23.3095 30.4941C22.9672 30.4647 22.6163 30.5487 22.3206 30.7093C22.5078 30.3394 22.7074 29.996 22.93 29.6896C23.3552 29.0968 23.8561 28.6626 24.4501 28.3566C25.0445 28.0485 25.742 27.8619 26.5031 27.7392C27.2659 27.6109 28.0804 27.5572 28.9608 27.4259C28.2245 26.9278 27.3869 26.6282 26.4886 26.517C25.5975 26.413 24.6133 26.5183 23.7309 26.9781C22.8441 27.4268 22.1467 28.2514 21.839 29.1428C21.595 29.8426 21.5343 30.5747 21.6736 31.2616C21.4612 30.6194 21.3091 30.0134 21.2514 29.4326C21.1757 28.7078 21.2616 28.0511 21.5027 27.4289C21.7424 26.8059 22.1411 26.2055 22.6296 25.6097C23.1151 25.008 23.6898 24.4302 24.2612 23.7497C23.3792 23.8626 22.5518 24.1933 21.8061 24.7042C21.0698 25.2151 20.4031 25.9447 20.048 26.8732C19.683 27.795 19.7078 28.8744 20.0706 29.7445C20.1279 29.8852 20.2035 30.0147 20.2745 30.146C20.039 29.9734 19.7839 29.8208 19.5104 29.6947C18.6527 29.2997 17.5723 29.2298 16.6317 29.5575C15.6873 29.8745 14.93 30.5095 14.3873 31.2228C13.8454 31.9464 13.4817 32.7561 13.333 33.6309C14.0394 33.0893 14.6411 32.54 15.2621 32.0802C15.8792 31.617 16.4975 31.245 17.1309 31.0306C17.7642 30.8154 18.4262 30.7566 19.1488 30.8606C19.848 30.959 20.5779 31.1926 21.3604 31.5088C21.4086 31.5471 21.4591 31.5825 21.5057 31.6221C21.5035 31.6276 21.5018 31.634 21.5001 31.64C21.4869 31.6323 21.4728 31.6251 21.4586 31.6178C21.4633 31.6106 21.4663 31.6046 21.4715 31.5982C21.4612 31.6004 21.4522 31.6051 21.442 31.6072C20.7728 31.2761 20.001 31.1453 19.2168 31.2339C18.2757 31.3366 17.3163 31.8339 16.6817 32.5975C16.0373 33.3561 15.7185 34.2893 15.6253 35.1808Z" fill="white"/>
</svg>
